<svg
    viewBox="0 0 22 35"
    xmlns="http://www.w3.org/2000/svg"
    >
    <style>
        .ball-fill {
          fill: #232323;
        }

        .hat-border {
          fill: #3a3a3a;
        }

        @media(prefers-color-scheme: dark) {
          .ball-fill {
            fill: #fff;
          }

          .hat-border {
            fill: #772121;
         }
        }
    </style>
<path
d="M10.5 14.0833C4.74692 14.0833 0.083374 18.7469 0.083374 24.5C0.083374 30.2531 4.74692 34.9167 10.5 34.9167C16.2532 34.9167 20.9167 30.2531 20.9167 24.5C20.9167 18.7469 16.2532 14.0833 10.5 14.0833ZM6.58754 16.5552L9.72087 18.4302V20.7146L6.81358 22.8271L4.68442 22.0906L4.07296 18.4094C4.79462 17.6472 5.64607 17.0193 6.58754 16.5552ZM1.77192 25.999L4.19587 23.575L6.32087 24.3094L7.44796 27.7812L6.43754 29.4219L3.00733 29.2198C2.38834 28.2376 1.96857 27.1432 1.77192 25.999ZM8.96879 33.2219L7.73546 30.2958L8.73858 28.6635H12.2511L13.2011 30.3104L12.1177 33.2062C11.0773 33.3973 10.0111 33.4026 8.96879 33.2219ZM17.6792 29.6833L14.5292 29.4854L13.5521 27.7937L14.6844 24.3094L16.7813 23.5844L19.1896 26.2094C18.9427 27.4628 18.4274 28.6479 17.6792 29.6833ZM16.9292 18.4125L16.3157 22.0927L14.1907 22.8271L11.2834 20.7146V18.4292L14.4105 16.5542C15.3537 17.0191 16.2066 17.6484 16.9292 18.4125Z"
class="ball-fill"
/>
<path
d="M4.43521 17.9029L2.04815 16.7094L2.64492 13.1288H15.1769L16.9672 16.7094L19.951 17.3061L20.5478 19.6932L18.7575 21.4835L16.3705 20.8867L15.7737 17.9029H4.43521Z"
fill="white"
/>
<path
d="M4.43522 5.96762L3.83846 12.532L15.1769 13.1288L16.9672 16.7094L19.3543 17.3061V8.35467L16.9672 4.17733L13.3867 1.79028H8.61256L4.43522 5.96762Z"
fill="#D41212"
/>
<path
fillRule="evenodd"
clipRule="evenodd"
d="M11.2794 1.3045e-07C13.4538 -0.000377732 15.5482 0.820147 17.1437 2.29746C18.7392 3.77478 19.7181 5.79997 19.8848 7.96797L20.534 16.4098C20.9828 16.8055 21.3253 17.3073 21.5302 17.8694C21.7351 18.4316 21.7958 19.0361 21.7069 19.6277C21.618 20.2194 21.3822 20.7793 21.0211 21.2564C20.66 21.7335 20.1852 22.1125 19.6399 22.3587C19.0946 22.605 18.4963 22.7107 17.8997 22.6662C17.303 22.6217 16.727 22.4284 16.2243 22.1039C15.7217 21.7794 15.3083 21.3342 15.022 20.8088C14.7357 20.2834 14.5856 19.6947 14.5855 19.0964L3.84377 19.0976C2.99819 19.0989 2.17944 18.8008 1.53254 18.2563C0.885648 17.7117 0.452352 16.9558 0.309399 16.1224C0.166446 15.2889 0.323061 14.4318 0.751506 13.7028C1.17995 12.9738 1.85257 12.4199 2.65025 12.1393V8.63038C2.65009 7.49708 2.87317 6.37485 3.30676 5.32777C3.74035 4.28069 4.37594 3.32927 5.17725 2.52785C5.97856 1.72643 6.92989 1.0907 7.97691 0.656972C9.02393 0.22324 10.1461 1.1961e-07 11.2794 1.3045e-07ZM18.1661 17.9029C17.8495 17.9029 17.546 18.0286 17.3221 18.2525C17.0983 18.4763 16.9726 18.7799 16.9726 19.0964C16.9726 19.4129 17.0983 19.7165 17.3221 19.9404C17.546 20.1642 17.8495 20.2899 18.1661 20.2899C18.4826 20.2899 18.7862 20.1642 19.01 19.9404C19.2339 19.7165 19.3596 19.4129 19.3596 19.0964C19.3596 18.7799 19.2339 18.4763 19.01 18.2525C18.7862 18.0286 18.4826 17.9029 18.1661 17.9029ZM14.9197 14.3223H3.84377C3.53957 14.3226 3.24697 14.4391 3.02577 14.648C2.80456 14.8568 2.67145 15.1422 2.65362 15.4459C2.63579 15.7496 2.7346 16.0486 2.92985 16.2819C3.1251 16.5152 3.40205 16.6651 3.70413 16.701L3.84377 16.7094H15.4974L15.6585 16.5411L14.9197 14.3223ZM11.2794 2.38705C9.66826 2.38692 8.11943 3.00978 6.95693 4.12535C5.79443 5.24091 5.1083 6.76277 5.04207 8.37258L5.0373 8.62919V11.9353H14.1236L13.4528 9.92536C13.3577 9.63677 13.3763 9.32277 13.5047 9.04739C13.6331 8.772 13.8618 8.55597 14.144 8.44333C14.4262 8.33069 14.7407 8.32993 15.0235 8.4412C15.3062 8.55247 15.5359 8.76739 15.6656 9.04215L15.7182 9.17105L17.8379 15.5302L18.0706 15.517L17.5037 8.15059C17.3831 6.58246 16.675 5.11766 15.521 4.04908C14.367 2.98051 12.8522 2.38693 11.2794 2.38705Z"
class="hat-border"
/>
    </svg>
